<svg width="86" height="86" viewBox="0 0 86 86" fill="none" xmlns="http://www.w3.org/2000/svg">
<path d="M8 0H36C37.6569 0 39 1.34315 39 3V3C39 4.65685 37.6569 6 36 6H8C6.89543 6 6 6.89543 6 8V35.5C6 37.1568 4.65685 38.5 3 38.5V38.5C1.34315 38.5 0 37.1568 0 35.5V8C0 3.58172 3.58172 0 8 0Z" fill="white"/>
<path d="M3 46.5C1.34315 46.5 0 47.8431 0 49.5V78C0 82.4183 3.58172 86 8 86H36C37.6569 86 39 84.6569 39 83V83C39 81.3431 37.6569 80 36 80H8C6.89543 80 6 79.1046 6 78V49.5C6 47.8431 4.65685 46.5 3 46.5V46.5Z" fill="white"/>
<path d="M83 46.5C81.3431 46.5 80 47.8431 80 49.5V78C80 79.1046 79.1046 80 78 80H50C48.3431 80 47 81.3431 47 83V83C47 84.6569 48.3431 86 50 86H78C82.4183 86 86 82.4183 86 78V49.5C86 47.8431 84.6569 46.5 83 46.5V46.5Z" fill="white"/>
<path d="M83 38.5C84.6569 38.5 86 37.1569 86 35.5V8C86 3.58172 82.4183 0 78 0H50C48.3431 0 47 1.34315 47 3V3C47 4.65685 48.3431 6 50 6H78C79.1046 6 80 6.89543 80 8V35.5C80 37.1569 81.3431 38.5 83 38.5V38.5Z" fill="white"/>
<rect x="36" y="35" width="15" height="15" rx="7.5" fill="white"/>
</svg>
